<svg id="visual" viewBox="0 0 900 600" width="900" height="600" xmlns="http://www.w3.org/2000/svg" xmlns:xlink="http://www.w3.org/1999/xlink" version="1.1"><rect x="0" y="0" width="900" height="600" fill="#000000"></rect><path d="M0 381L21.5 377.8C43 374.7 86 368.3 128.8 368.7C171.7 369 214.3 376 257.2 389.7C300 403.3 343 423.7 385.8 421.2C428.7 418.7 471.3 393.3 514.2 387.7C557 382 600 396 642.8 401.8C685.7 407.7 728.3 405.3 771.2 399.2C814 393 857 383 878.5 378L900 373L900 601L878.5 601C857 601 814 601 771.2 601C728.3 601 685.7 601 642.8 601C600 601 557 601 514.2 601C471.3 601 428.7 601 385.8 601C343 601 300 601 257.2 601C214.3 601 171.7 601 128.8 601C86 601 43 601 21.5 601L0 601Z" fill="#7181f4"></path><path d="M0 412L21.5 418.2C43 424.3 86 436.7 128.8 436.2C171.7 435.7 214.3 422.3 257.2 424.8C300 427.3 343 445.7 385.8 452.2C428.7 458.7 471.3 453.3 514.2 442.7C557 432 600 416 642.8 416.5C685.7 417 728.3 434 771.2 440.2C814 446.3 857 441.7 878.5 439.3L900 437L900 601L878.5 601C857 601 814 601 771.2 601C728.3 601 685.7 601 642.8 601C600 601 557 601 514.2 601C471.3 601 428.7 601 385.8 601C343 601 300 601 257.2 601C214.3 601 171.7 601 128.8 601C86 601 43 601 21.5 601L0 601Z" fill="#6269e0"></path><path d="M0 489L21.5 489.5C43 490 86 491 128.8 483.7C171.7 476.3 214.3 460.7 257.2 463.5C300 466.3 343 487.7 385.8 489.7C428.7 491.7 471.3 474.3 514.2 464.7C557 455 600 453 642.8 458.7C685.7 464.3 728.3 477.7 771.2 486.7C814 495.7 857 500.3 878.5 502.7L900 505L900 601L878.5 601C857 601 814 601 771.2 601C728.3 601 685.7 601 642.8 601C600 601 557 601 514.2 601C471.3 601 428.7 601 385.8 601C343 601 300 601 257.2 601C214.3 601 171.7 601 128.8 601C86 601 43 601 21.5 601L0 601Z" fill="#5452cc"></path><path d="M0 504L21.5 506C43 508 86 512 128.8 516.5C171.7 521 214.3 526 257.2 521.7C300 517.3 343 503.7 385.8 502.5C428.7 501.3 471.3 512.7 514.2 513.3C557 514 600 504 642.8 500.5C685.7 497 728.3 500 771.2 502.2C814 504.3 857 505.7 878.5 506.3L900 507L900 601L878.5 601C857 601 814 601 771.2 601C728.3 601 685.7 601 642.8 601C600 601 557 601 514.2 601C471.3 601 428.7 601 385.8 601C343 601 300 601 257.2 601C214.3 601 171.7 601 128.8 601C86 601 43 601 21.5 601L0 601Z" fill="#463bb7"></path><path d="M0 534L21.5 536.8C43 539.7 86 545.3 128.8 548.8C171.7 552.3 214.3 553.7 257.2 551.7C300 549.7 343 544.3 385.8 546.8C428.7 549.3 471.3 559.7 514.2 563.7C557 567.7 600 565.3 642.8 560.3C685.7 555.3 728.3 547.7 771.2 541.8C814 536 857 532 878.5 530L900 528L900 601L878.5 601C857 601 814 601 771.2 601C728.3 601 685.7 601 642.8 601C600 601 557 601 514.2 601C471.3 601 428.7 601 385.8 601C343 601 300 601 257.2 601C214.3 601 171.7 601 128.8 601C86 601 43 601 21.5 601L0 601Z" fill="#3922a2"></path></svg>